<svg xmlns="http://www.w3.org/2000/svg" viewBox="0 0 128 128">
  <path fill="#f7df1e" d="M0 0h128v128H0z"></path>
  <path d="M65.6 105.7c0 9.1-5.4 13.3-13.3 13.3-7.1 0-11.2-3.7-13.3-8.2l7.2-4.2c1.4 2.6 2.6 4.7 5.6 4.7 2.9 0 4.7-1.1 4.7-5.6V62.2h9.1v43.5zm21.2 13.3c-8.2 0-13.5-3.9-16.1-9l7.2-4.2c1.9 3.1 4.4 5.4 8.9 5.4 3.7 0 6.1-1.8 6.1-4.4 0-3.1-2.5-4.2-6.7-6l-2.3-1c-6.7-2.9-11.2-6.7-11.2-14.7 0-7.3 5.6-12.8 14.4-12.8 6.3 0 10.8 2.2 14 8.2l-7 4.5c-1.5-2.9-3.1-4.1-7-4.1-3.2 0-5.2 2-5.2 4.1 0 2.9 2 4.1 6.7 6l2.3 1c7.9 3.4 12.4 7 12.4 15.3 0 8.7-6.9 13.5-16.6 13.5z"></path>
</svg>
