<svg xmlns="http://www.w3.org/2000/svg" viewBox="0 0 256 154">
  <path fill="#38bdf8" d="M128 0C93 0 73.3 17.2 68 51.5c9-13.6 20-18.7 33.5-15.3 7.3 1.8 12.5 7.1 18.3 13 9.4 9.6 20.3 20.8 44.2 20.8 35 0 54.7-17.2 60-51.5-9 13.6-20 18.7-33.5 15.3-7.3-1.8-12.5-7.1-18.3-13C162.8 11.9 151.9 0 128 0zM68 77.5c-35 0-54.7 17.2-60 51.5 9-13.6 20-18.7 33.5-15.3 7.3 1.8 12.5 7.1 18.3 13 9.4 9.6 20.3 20.8 44.2 20.8 35 0 54.7-17.2 60-51.5-9 13.6-20 18.7-33.5 15.3-7.3-1.8-12.5-7.1-18.3-13-9.4-9.6-20.3-20.8-44.2-20.8z"></path>
</svg>
